<svg xmlns="http://www.w3.org/2000/svg" viewBox="0 0 79 30" width="79" height="30">
	<style>
		tspan { white-space:pre }
		.shp0 { fill: #fa2276 } 
	</style>
	<g id="logo">
		<path id="Shape 1" class="shp0" d="M29.6 8.25C29.6 8.25 31.57 0.34 39.97 0L62.62 0C62.62 0 74.44 0.24 77.67 12.23L78.88 18.39C78.88 18.39 81.4 28 69.99 29.25L43.62 30C43.62 30 31.45 27.51 30.67 18.39L29.6 8.25Z" />
		<path id="You  Tube " fill="#434f74" aria-label="You  Tube"  d="M3.4 14.87L-0.51 8.13L1.1 8.13L4.16 13.42L7.2 8.13L8.81 8.13L4.9 14.87L4.9 21L3.4 21L3.4 14.87ZM11.55 12.46Q10.46 12.46 9.82 13.46Q9.19 14.45 9.19 16.18Q9.19 17.91 9.81 18.91Q10.45 19.91 11.55 19.91Q12.64 19.91 13.28 18.91Q13.91 17.91 13.91 16.18Q13.91 14.47 13.28 13.47Q12.64 12.46 11.55 12.46ZM11.55 11.11Q13.33 11.11 14.34 12.46Q15.35 13.8 15.35 16.18Q15.35 18.55 14.34 19.91Q13.33 21.25 11.55 21.25Q9.77 21.25 8.76 19.91Q7.75 18.55 7.75 16.18Q7.75 13.8 8.76 12.46Q9.77 11.11 11.55 11.11ZM17.62 17.19L17.62 11.35L18.98 11.35L18.98 17.13Q18.98 18.5 19.44 19.19Q19.9 19.87 20.82 19.87Q21.92 19.87 22.55 19.05Q23.2 18.23 23.2 16.82L23.2 11.35L24.56 11.35L24.56 21L23.2 21L23.2 19.52Q22.7 20.4 22.04 20.83Q21.39 21.25 20.53 21.25Q19.1 21.25 18.36 20.22Q17.62 19.18 17.62 17.19ZM21.04 11.11L21.04 11.11Z" />
		<path id="You  Tube " fill="#ffffff" aria-label="You  Tube"  d="M36.12 9.6L36.12 8.13L45.47 8.13L45.47 9.6L41.55 9.6L41.55 21L40.04 21L40.04 9.6L36.12 9.6ZM44.56 17.19L44.56 11.35L45.92 11.35L45.92 17.13Q45.92 18.5 46.38 19.19Q46.84 19.87 47.75 19.87Q48.86 19.87 49.49 19.05Q50.14 18.23 50.14 16.82L50.14 11.35L51.5 11.35L51.5 21L50.14 21L50.14 19.52Q49.64 20.4 48.98 20.83Q48.33 21.25 47.47 21.25Q46.04 21.25 45.3 20.22Q44.56 19.18 44.56 17.19ZM47.98 11.11L47.98 11.11ZM60.4 16.18Q60.4 14.43 59.78 13.44Q59.16 12.44 58.08 12.44Q57 12.44 56.38 13.44Q55.77 14.43 55.77 16.18Q55.77 17.93 56.38 18.93Q57 19.92 58.08 19.92Q59.16 19.92 59.78 18.93Q60.4 17.93 60.4 16.18ZM55.77 7.59L55.77 12.81Q56.2 11.95 56.85 11.54Q57.51 11.11 58.42 11.11Q59.92 11.11 60.86 12.51Q61.81 13.91 61.81 16.18Q61.81 18.46 60.86 19.85Q59.92 21.25 58.42 21.25Q57.51 21.25 56.85 20.84Q56.2 20.41 55.77 19.55L55.77 21L54.4 21L54.4 7.59L55.77 7.59ZM71.3 15.78L71.3 16.55L65.05 16.55Q65.13 18.19 65.89 19.05Q66.65 19.91 68 19.91Q68.79 19.91 69.52 19.68Q70.26 19.46 70.98 19.01L70.98 20.51Q70.25 20.87 69.48 21.06Q68.71 21.25 67.92 21.25Q65.94 21.25 64.78 19.91Q63.63 18.56 63.63 16.27Q63.63 13.9 64.72 12.51Q65.82 11.11 67.69 11.11Q69.36 11.11 70.33 12.37Q71.3 13.62 71.3 15.78ZM65.09 15.32L69.94 15.31Q69.93 14.01 69.31 13.23Q68.71 12.46 67.7 12.46Q66.56 12.46 65.87 13.21Q65.19 13.96 65.09 15.32Z" />
	</g>
</svg>