<svg xmlns="http://www.w3.org/2000/svg" viewBox="0 0 17 21" width="17" height="21">
	<style>
		tspan { white-space:pre }
		.shp0 { fill: #959fbb } 
		.shp1 { fill: #fa2276 } 
	</style>
	<g id="notification">
		<path id="ic-notification" class="shp0" d="M14.77 14.59L14.77 10.78C14.77 7.43 12.59 4.61 9.65 3.83C9.78 3.56 9.85 3.27 9.85 2.96C9.85 1.88 9.02 1 8 1C6.98 1 6.15 1.88 6.15 2.96C6.15 3.27 6.22 3.56 6.35 3.83C3.41 4.61 1.23 7.43 1.23 10.78L1.23 14.59C0.51 14.86 0 15.58 0 16.43C0 17.51 0.83 18.39 1.85 18.39L4.98 18.39C5.27 19.88 6.51 21 8 21C9.49 21 10.73 19.88 11.01 18.39L14.15 18.39C15.17 18.39 16 17.51 16 16.43C16 15.58 15.49 14.86 14.77 14.59ZM8 2.3C8.34 2.3 8.62 2.6 8.62 2.96C8.62 3.32 8.34 3.61 8 3.61C7.66 3.61 7.38 3.32 7.38 2.96C7.38 2.6 7.66 2.3 8 2.3ZM8 19.7C7.2 19.7 6.51 19.15 6.26 18.39L9.74 18.39C9.49 19.15 8.8 19.7 8 19.7ZM14.15 17.09L1.85 17.09C1.51 17.09 1.23 16.79 1.23 16.43C1.23 16.08 1.51 15.78 1.85 15.78L3.08 15.78C3.42 15.78 3.69 15.49 3.69 15.13C3.69 14.77 3.42 14.48 3.08 14.48L2.46 14.48L2.46 10.78C2.46 7.55 4.95 4.91 8 4.91C11.05 4.91 13.54 7.55 13.54 10.78L13.54 14.48L12.92 14.48C12.58 14.48 12.31 14.77 12.31 15.13C12.31 15.49 12.58 15.78 12.92 15.78L14.15 15.78C14.49 15.78 14.77 16.08 14.77 16.43C14.77 16.79 14.49 17.09 14.15 17.09ZM8 6.22C5.62 6.22 3.69 8.27 3.69 10.78C3.69 11.14 3.97 11.43 4.31 11.43C4.65 11.43 4.92 11.14 4.92 10.78C4.92 8.98 6.3 7.52 8 7.52C8.34 7.52 8.62 7.23 8.62 6.87C8.62 6.51 8.34 6.22 8 6.22Z" />
		<path id="bg" class="shp1" d="M13 0C15.21 0 17 1.79 17 4C17 6.21 15.21 8 13 8C10.79 8 9 6.21 9 4C9 1.79 10.79 0 13 0Z" />
	</g>
</svg>