<svg xmlns="http://www.w3.org/2000/svg" viewBox="0 0 21 20" width="20" height="20">
	<style>
		tspan { white-space:pre }
		.shp0 { fill: #959fbb } 
	</style>
	<path id="ic-search" class="shp0" d="M0.15 18.98L5.02 14.12C3.71 12.62 2.92 10.67 2.92 8.53C2.92 3.82 6.75 0 11.46 0C16.17 0 20 3.83 20 8.53C20 13.23 16.17 17.06 11.46 17.06C9.32 17.06 7.36 16.27 5.86 14.96L0.99 19.82C0.88 19.94 0.72 20 0.57 20C0.42 20 0.26 19.94 0.15 19.82C-0.08 19.59 -0.08 19.21 0.15 18.98ZM18.81 8.53C18.81 4.48 15.51 1.2 11.46 1.2C7.41 1.2 4.12 4.49 4.12 8.53C4.12 12.57 7.41 15.86 11.46 15.86C15.51 15.86 18.81 12.57 18.81 8.53Z" />
</svg>