<svg xmlns="http://www.w3.org/2000/svg" viewBox="0 0 20 20" width="20" height="20">
	<style>
		tspan { white-space:pre }
		.shp0 { fill: #959fbb } 
	</style>
	<path id="ic-upload" class="shp0" d="M12.96 0C9.55 0 6.7 2.41 6.07 5.66C5.46 5.42 4.83 5.3 4.18 5.34C1.84 5.42 0 7.42 0 9.83C0 12.19 1.91 14.1 4.26 14.1C4.66 14.1 4.97 13.79 4.97 13.39C4.97 12.99 4.66 12.68 4.26 12.68C2.7 12.68 1.41 11.41 1.41 9.83C1.41 8.19 2.68 6.78 4.24 6.71C4.97 6.68 5.64 6.9 6.2 7.33C6.41 7.49 6.68 7.52 6.92 7.42C7.16 7.31 7.32 7.07 7.34 6.8C7.46 3.77 9.91 1.38 12.96 1.38C16.07 1.38 18.59 3.91 18.59 7.02C18.59 7.09 18.59 7.16 18.57 7.23L18.57 7.35C18.57 7.4 18.57 7.44 18.57 7.49C18.52 10.36 16.17 12.68 13.28 12.68C12.89 12.68 12.58 12.99 12.58 13.39C12.58 13.79 12.89 14.1 13.28 14.1C16.98 14.1 19.98 11.08 19.98 7.38C19.98 7.37 19.98 7.35 19.98 7.31C19.98 7.21 20 7.13 20 7.02C20 3.15 16.84 0 12.96 0ZM9.57 11.88C9.3 11.6 8.85 11.6 8.57 11.88L4.02 16.44C3.75 16.71 3.75 17.16 4.02 17.44C4.3 17.71 4.74 17.71 5.02 17.44L8.37 14.08L8.37 19.29C8.37 19.69 8.68 20 9.07 20C9.47 20 9.78 19.69 9.78 19.29L9.78 14.08L13.11 17.42C13.25 17.56 13.42 17.62 13.61 17.62C13.78 17.62 13.97 17.56 14.11 17.42C14.38 17.14 14.38 16.7 14.11 16.42L9.57 11.88Z" />
</svg>